%TF.GenerationSoftware,KiCad,Pcbnew,10.0.6*%
%TF.CreationDate,2026-09-18T11:08:57-04:00*%
%TF.ProjectId,eclectronicsmp1,65636c65-6374-4726-9f6e-6963736d7031,rev?*%
%TF.SameCoordinates,Original*%
%TF.FileFunction,Copper,L1,Top*%
%TF.FilePolarity,Positive*%
%FSLAX46Y46*%
G04 Gerber Fmt 4.6, Leading zero omitted, Abs format (unit mm)*
G04 Created by KiCad (PCBNEW 10.0.6) date 2026-09-18 11:08:57*
%MOMM*%
%LPD*%
G01*
G04 APERTURE LIST*
%TA.AperFunction,WasherPad*%
%ADD10O,3.098800X1.549400*%
%TD*%
%TA.AperFunction,ComponentPad*%
%ADD11C,1.524000*%
%TD*%
%TA.AperFunction,SMDPad,CuDef*%
%ADD12R,0.762000X0.812800*%
%TD*%
%TA.AperFunction,SMDPad,CuDef*%
%ADD13R,0.762000X0.990600*%
%TD*%
%TA.AperFunction,SMDPad,CuDef*%
%ADD14R,1.005599X0.949998*%
%TD*%
%TA.AperFunction,SMDPad,CuDef*%
%ADD15R,1.320800X0.508000*%
%TD*%
%TA.AperFunction,SMDPad,CuDef*%
%ADD16R,1.320800X0.939800*%
%TD*%
%TA.AperFunction,SMDPad,CuDef*%
%ADD17R,0.812800X0.762000*%
%TD*%
%TA.AperFunction,ViaPad*%
%ADD18C,0.620000*%
%TD*%
%TA.AperFunction,Conductor*%
%ADD19C,0.200000*%
%TD*%
G04 APERTURE END LIST*
D10*
%TO.P,J1,*%
%TO.N,*%
X184399999Y-107299999D03*
X184399999Y-118700001D03*
D11*
%TO.P,J1,1,1_1*%
%TO.N,Net-(U1-VIN)*%
X186500000Y-116499999D03*
%TO.P,J1,2,2_2*%
%TO.N,unconnected-(J1-Pad2)*%
X186500000Y-114000000D03*
%TO.P,J1,3,3_3*%
%TO.N,unconnected-(J1-Pad3)*%
X186500000Y-111999999D03*
%TO.P,J1,4,4_4*%
%TO.N,GND*%
X186500000Y-109500001D03*
%TD*%
D12*
%TO.P,R1,1*%
%TO.N,Net-(U2-VDD)*%
X197274700Y-117500000D03*
%TO.P,R1,2*%
%TO.N,GND*%
X195725300Y-117500000D03*
%TD*%
D13*
%TO.P,LED1,1*%
%TO.N,GND*%
X201572900Y-108500000D03*
%TO.P,LED1,2*%
%TO.N,Net-(LED1-Pad2)*%
X203427100Y-108500000D03*
%TD*%
D14*
%TO.P,C1,1*%
%TO.N,Net-(U3-VIN-)*%
X210500000Y-112500000D03*
%TO.P,C1,2*%
%TO.N,GND*%
X211955598Y-112500000D03*
%TD*%
D12*
%TO.P,R6,1*%
%TO.N,Net-(LED1-Pad2)*%
X210500000Y-108500000D03*
%TO.P,R6,2*%
%TO.N,Net-(R6-Pad2)*%
X212049400Y-108500000D03*
%TD*%
%TO.P,R7,1*%
%TO.N,Net-(R6-Pad2)*%
X212049400Y-110500000D03*
%TO.P,R7,2*%
%TO.N,Net-(U3-VIN-)*%
X210500000Y-110500000D03*
%TD*%
D15*
%TO.P,U3,1,VOUT_1*%
%TO.N,Net-(U3-VOUT)*%
X205204600Y-111549999D03*
%TO.P,U3,2,VSS_2*%
%TO.N,GND*%
X205204600Y-112500000D03*
%TO.P,U3,3,VIN+_3*%
%TO.N,Net-(U3-VIN+)*%
X205204600Y-113450001D03*
%TO.P,U3,4,VIN-_4*%
%TO.N,Net-(U3-VIN-)*%
X207795400Y-113450001D03*
%TO.P,U3,5,VDD_5*%
%TO.N,Net-(U2-VDD)*%
X207795400Y-111549999D03*
%TD*%
D12*
%TO.P,R5,1*%
%TO.N,Net-(U3-VOUT)*%
X207175900Y-108549999D03*
%TO.P,R5,2*%
%TO.N,Net-(LED1-Pad2)*%
X208725300Y-108549999D03*
%TD*%
D16*
%TO.P,U1,1,GND_1*%
%TO.N,GND*%
X192695200Y-115400002D03*
%TO.P,U1,2,VOUT_2*%
%TO.N,Net-(U1-VOUT)*%
X192695200Y-113500000D03*
%TO.P,U1,3,VIN_3*%
%TO.N,Net-(U1-VIN)*%
X190304800Y-114450001D03*
%TD*%
D15*
%TO.P,U2,1,VOUT_1*%
%TO.N,Net-(U2-VIN-)*%
X197204600Y-111549999D03*
%TO.P,U2,2,VSS_2*%
%TO.N,GND*%
X197204600Y-112500000D03*
%TO.P,U2,3,VIN+_3*%
%TO.N,Net-(U2-VDD)*%
X197204600Y-113450001D03*
%TO.P,U2,4,VIN-_4*%
%TO.N,Net-(U2-VIN-)*%
X199795400Y-113450001D03*
%TO.P,U2,5,VDD_5*%
%TO.N,Net-(U2-VDD)*%
X199795400Y-111549999D03*
%TD*%
D17*
%TO.P,R4,1*%
%TO.N,Net-(U3-VIN+)*%
X202000000Y-113274700D03*
%TO.P,R4,2*%
%TO.N,Net-(U3-VOUT)*%
X202000000Y-111725300D03*
%TD*%
D14*
%TO.P,C2,1*%
%TO.N,Net-(U1-VIN)*%
X192227799Y-108500000D03*
%TO.P,C2,2*%
%TO.N,GND*%
X190772201Y-108500000D03*
%TD*%
D12*
%TO.P,R3,1*%
%TO.N,Net-(U3-VIN+)*%
X201274700Y-116500000D03*
%TO.P,R3,2*%
%TO.N,Net-(U2-VIN-)*%
X199725300Y-116500000D03*
%TD*%
D14*
%TO.P,C3,1*%
%TO.N,Net-(U1-VOUT)*%
X195500000Y-108500000D03*
%TO.P,C3,2*%
%TO.N,GND*%
X196955598Y-108500000D03*
%TD*%
D12*
%TO.P,R2,1*%
%TO.N,Net-(U2-VDD)*%
X197500000Y-115500000D03*
%TO.P,R2,2*%
%TO.N,Net-(U1-VOUT)*%
X195950600Y-115500000D03*
%TD*%
D18*
%TO.N,GND*%
X195500000Y-112500000D03*
X194000000Y-116500000D03*
X203500000Y-112500000D03*
X211500000Y-114000000D03*
X194000000Y-116500000D03*
%TD*%
%TO.N,Net-(U1-VIN)*%
D19*
X190304800Y-113278601D02*
X190304800Y-114450001D01*
X192227799Y-111355602D02*
X190304800Y-113278601D01*
X192227799Y-108500000D02*
X192227799Y-111355602D01*
X187000000Y-116999999D02*
X189549998Y-114450001D01*
X189549998Y-114450001D02*
X190304800Y-114450001D01*
%TO.N,GND*%
X187499999Y-110000001D02*
X189000000Y-108500000D01*
X187000000Y-110000001D02*
X187499999Y-110000001D01*
X195500000Y-107000000D02*
X193500000Y-107000000D01*
X192900002Y-115400002D02*
X194000000Y-116500000D01*
X197204600Y-112500000D02*
X195500000Y-112500000D01*
X211955598Y-112500000D02*
X211955598Y-113544402D01*
X196955598Y-108500000D02*
X196955598Y-108455598D01*
X195000000Y-117500000D02*
X194000000Y-116500000D01*
X201572900Y-108500000D02*
X196955598Y-108500000D01*
X195725300Y-117500000D02*
X195000000Y-117500000D01*
X205204600Y-112500000D02*
X203500000Y-112500000D01*
X190772201Y-108500000D02*
X190772201Y-107825001D01*
X191597202Y-107000000D02*
X193500000Y-107000000D01*
X211955598Y-113544402D02*
X211500000Y-114000000D01*
X192695200Y-115400002D02*
X192900002Y-115400002D01*
X196955598Y-108455598D02*
X195500000Y-107000000D01*
X211955598Y-112500000D02*
X212000000Y-112500000D01*
X190772201Y-107825001D02*
X191597202Y-107000000D01*
X189000000Y-108500000D02*
X190772201Y-108500000D01*
%TO.N,Net-(U2-VDD)*%
X199795400Y-111295400D02*
X199795400Y-111549999D01*
X197274700Y-115725300D02*
X197500000Y-115500000D01*
X199241400Y-110995999D02*
X199795400Y-111549999D01*
X206835000Y-113334001D02*
X202669001Y-117500000D01*
X198500000Y-110000000D02*
X199795400Y-111295400D01*
X197500000Y-115500000D02*
X197500000Y-114500000D01*
X202669001Y-117500000D02*
X197274700Y-117500000D01*
X197204600Y-113450001D02*
X194950001Y-113450001D01*
X197204600Y-114204600D02*
X197204600Y-113450001D01*
X194250000Y-111250000D02*
X195500000Y-110000000D01*
X207795400Y-111549999D02*
X206835000Y-112510399D01*
X206835000Y-112510399D02*
X206835000Y-113334001D01*
X195500000Y-110000000D02*
X198500000Y-110000000D01*
X194950001Y-113450001D02*
X194250000Y-112750000D01*
X194250000Y-112750000D02*
X194250000Y-111250000D01*
X197500000Y-114500000D02*
X197204600Y-114204600D01*
X197274700Y-117500000D02*
X197274700Y-115725300D01*
%TO.N,Net-(LED1-Pad2)*%
X210450001Y-108549999D02*
X210500000Y-108500000D01*
X208725300Y-107943599D02*
X208725300Y-108549999D01*
X208725300Y-108549999D02*
X208725300Y-108725300D01*
X203427100Y-108500000D02*
X204000000Y-107927100D01*
X204000000Y-107927100D02*
X204000000Y-107500000D01*
X208281701Y-107500000D02*
X208725300Y-107943599D01*
X208725300Y-108549999D02*
X210450001Y-108549999D01*
X204000000Y-107500000D02*
X208281701Y-107500000D01*
%TO.N,Net-(U3-VIN-)*%
X210500000Y-110500000D02*
X210500000Y-112500000D01*
X207795400Y-113450001D02*
X209549999Y-113450001D01*
X209549999Y-113450001D02*
X210500000Y-112500000D01*
%TO.N,Net-(R6-Pad2)*%
X212049400Y-110500000D02*
X212000000Y-110500000D01*
X212049400Y-110450600D02*
X212049400Y-108500000D01*
X212000000Y-110500000D02*
X212049400Y-110450600D01*
%TO.N,Net-(U3-VOUT)*%
X205029299Y-111725300D02*
X205204600Y-111549999D01*
X205204600Y-111295400D02*
X207175900Y-109324100D01*
X207175900Y-109324100D02*
X207175900Y-108549999D01*
X202000000Y-111725300D02*
X205029299Y-111725300D01*
X205204600Y-111549999D02*
X205204600Y-111295400D01*
%TO.N,Net-(U3-VIN+)*%
X205204600Y-113450001D02*
X205049999Y-113450001D01*
X205049999Y-113450001D02*
X205000000Y-113500000D01*
X204774700Y-113274700D02*
X202000000Y-113274700D01*
X201274700Y-116500000D02*
X201274700Y-114000000D01*
X201274700Y-114000000D02*
X202000000Y-113274700D01*
X205000000Y-113500000D02*
X204774700Y-113274700D01*
%TO.N,Net-(U1-VOUT)*%
X192695200Y-113500000D02*
X192695200Y-111304800D01*
X192695200Y-113500000D02*
X193950600Y-113500000D01*
X192695200Y-111304800D02*
X195500000Y-108500000D01*
X193950600Y-113500000D02*
X195950600Y-115500000D01*
%TO.N,Net-(U2-VIN-)*%
X197895398Y-111549999D02*
X199795400Y-113450001D01*
X199725300Y-113520101D02*
X199795400Y-113450001D01*
X199725300Y-116500000D02*
X199725300Y-113520101D01*
X197204600Y-111549999D02*
X197895398Y-111549999D01*
%TD*%
M02*
