%TF.GenerationSoftware,KiCad,Pcbnew,10.0.6*%
%TF.CreationDate,2026-09-18T11:08:57-04:00*%
%TF.ProjectId,eclectronicsmp1,65636c65-6374-4726-9f6e-6963736d7031,rev?*%
%TF.SameCoordinates,Original*%
%TF.FileFunction,Legend,Top*%
%TF.FilePolarity,Positive*%
%FSLAX46Y46*%
G04 Gerber Fmt 4.6, Leading zero omitted, Abs format (unit mm)*
G04 Created by KiCad (PCBNEW 10.0.6) date 2026-09-18 11:08:57*
%MOMM*%
%LPD*%
G01*
G04 APERTURE LIST*
%ADD10C,0.150000*%
%ADD11C,0.152400*%
%ADD12C,0.508000*%
G04 APERTURE END LIST*
D10*
X190045180Y-112666666D02*
X189330895Y-112666666D01*
X189330895Y-112666666D02*
X189188038Y-112619047D01*
X189188038Y-112619047D02*
X189092800Y-112523809D01*
X189092800Y-112523809D02*
X189045180Y-112380952D01*
X189045180Y-112380952D02*
X189045180Y-112285714D01*
X189045180Y-113666666D02*
X189045180Y-113095238D01*
X189045180Y-113380952D02*
X190045180Y-113380952D01*
X190045180Y-113380952D02*
X189902323Y-113285714D01*
X189902323Y-113285714D02*
X189807085Y-113190476D01*
X189807085Y-113190476D02*
X189759466Y-113095238D01*
X196666666Y-117045180D02*
X196999999Y-117521371D01*
X197238094Y-117045180D02*
X197238094Y-118045180D01*
X197238094Y-118045180D02*
X196857142Y-118045180D01*
X196857142Y-118045180D02*
X196761904Y-117997561D01*
X196761904Y-117997561D02*
X196714285Y-117949942D01*
X196714285Y-117949942D02*
X196666666Y-117854704D01*
X196666666Y-117854704D02*
X196666666Y-117711847D01*
X196666666Y-117711847D02*
X196714285Y-117616609D01*
X196714285Y-117616609D02*
X196761904Y-117568990D01*
X196761904Y-117568990D02*
X196857142Y-117521371D01*
X196857142Y-117521371D02*
X197238094Y-117521371D01*
X195714285Y-117045180D02*
X196285713Y-117045180D01*
X195999999Y-117045180D02*
X195999999Y-118045180D01*
X195999999Y-118045180D02*
X196095237Y-117902323D01*
X196095237Y-117902323D02*
X196190475Y-117807085D01*
X196190475Y-117807085D02*
X196285713Y-117759466D01*
X201380952Y-108954819D02*
X200904762Y-108954819D01*
X200904762Y-108954819D02*
X200904762Y-107954819D01*
X201714286Y-108431009D02*
X202047619Y-108431009D01*
X202190476Y-108954819D02*
X201714286Y-108954819D01*
X201714286Y-108954819D02*
X201714286Y-107954819D01*
X201714286Y-107954819D02*
X202190476Y-107954819D01*
X202619048Y-108954819D02*
X202619048Y-107954819D01*
X202619048Y-107954819D02*
X202857143Y-107954819D01*
X202857143Y-107954819D02*
X203000000Y-108002438D01*
X203000000Y-108002438D02*
X203095238Y-108097676D01*
X203095238Y-108097676D02*
X203142857Y-108192914D01*
X203142857Y-108192914D02*
X203190476Y-108383390D01*
X203190476Y-108383390D02*
X203190476Y-108526247D01*
X203190476Y-108526247D02*
X203142857Y-108716723D01*
X203142857Y-108716723D02*
X203095238Y-108811961D01*
X203095238Y-108811961D02*
X203000000Y-108907200D01*
X203000000Y-108907200D02*
X202857143Y-108954819D01*
X202857143Y-108954819D02*
X202619048Y-108954819D01*
X204142857Y-108954819D02*
X203571429Y-108954819D01*
X203857143Y-108954819D02*
X203857143Y-107954819D01*
X203857143Y-107954819D02*
X203761905Y-108097676D01*
X203761905Y-108097676D02*
X203666667Y-108192914D01*
X203666667Y-108192914D02*
X203571429Y-108240533D01*
X211061132Y-112859580D02*
X211013513Y-112907200D01*
X211013513Y-112907200D02*
X210870656Y-112954819D01*
X210870656Y-112954819D02*
X210775418Y-112954819D01*
X210775418Y-112954819D02*
X210632561Y-112907200D01*
X210632561Y-112907200D02*
X210537323Y-112811961D01*
X210537323Y-112811961D02*
X210489704Y-112716723D01*
X210489704Y-112716723D02*
X210442085Y-112526247D01*
X210442085Y-112526247D02*
X210442085Y-112383390D01*
X210442085Y-112383390D02*
X210489704Y-112192914D01*
X210489704Y-112192914D02*
X210537323Y-112097676D01*
X210537323Y-112097676D02*
X210632561Y-112002438D01*
X210632561Y-112002438D02*
X210775418Y-111954819D01*
X210775418Y-111954819D02*
X210870656Y-111954819D01*
X210870656Y-111954819D02*
X211013513Y-112002438D01*
X211013513Y-112002438D02*
X211061132Y-112050057D01*
X212013513Y-112954819D02*
X211442085Y-112954819D01*
X211727799Y-112954819D02*
X211727799Y-111954819D01*
X211727799Y-111954819D02*
X211632561Y-112097676D01*
X211632561Y-112097676D02*
X211537323Y-112192914D01*
X211537323Y-112192914D02*
X211442085Y-112240533D01*
X211108033Y-108954819D02*
X210774700Y-108478628D01*
X210536605Y-108954819D02*
X210536605Y-107954819D01*
X210536605Y-107954819D02*
X210917557Y-107954819D01*
X210917557Y-107954819D02*
X211012795Y-108002438D01*
X211012795Y-108002438D02*
X211060414Y-108050057D01*
X211060414Y-108050057D02*
X211108033Y-108145295D01*
X211108033Y-108145295D02*
X211108033Y-108288152D01*
X211108033Y-108288152D02*
X211060414Y-108383390D01*
X211060414Y-108383390D02*
X211012795Y-108431009D01*
X211012795Y-108431009D02*
X210917557Y-108478628D01*
X210917557Y-108478628D02*
X210536605Y-108478628D01*
X211965176Y-107954819D02*
X211774700Y-107954819D01*
X211774700Y-107954819D02*
X211679462Y-108002438D01*
X211679462Y-108002438D02*
X211631843Y-108050057D01*
X211631843Y-108050057D02*
X211536605Y-108192914D01*
X211536605Y-108192914D02*
X211488986Y-108383390D01*
X211488986Y-108383390D02*
X211488986Y-108764342D01*
X211488986Y-108764342D02*
X211536605Y-108859580D01*
X211536605Y-108859580D02*
X211584224Y-108907200D01*
X211584224Y-108907200D02*
X211679462Y-108954819D01*
X211679462Y-108954819D02*
X211869938Y-108954819D01*
X211869938Y-108954819D02*
X211965176Y-108907200D01*
X211965176Y-108907200D02*
X212012795Y-108859580D01*
X212012795Y-108859580D02*
X212060414Y-108764342D01*
X212060414Y-108764342D02*
X212060414Y-108526247D01*
X212060414Y-108526247D02*
X212012795Y-108431009D01*
X212012795Y-108431009D02*
X211965176Y-108383390D01*
X211965176Y-108383390D02*
X211869938Y-108335771D01*
X211869938Y-108335771D02*
X211679462Y-108335771D01*
X211679462Y-108335771D02*
X211584224Y-108383390D01*
X211584224Y-108383390D02*
X211536605Y-108431009D01*
X211536605Y-108431009D02*
X211488986Y-108526247D01*
X211441366Y-110045180D02*
X211774699Y-110521371D01*
X212012794Y-110045180D02*
X212012794Y-111045180D01*
X212012794Y-111045180D02*
X211631842Y-111045180D01*
X211631842Y-111045180D02*
X211536604Y-110997561D01*
X211536604Y-110997561D02*
X211488985Y-110949942D01*
X211488985Y-110949942D02*
X211441366Y-110854704D01*
X211441366Y-110854704D02*
X211441366Y-110711847D01*
X211441366Y-110711847D02*
X211488985Y-110616609D01*
X211488985Y-110616609D02*
X211536604Y-110568990D01*
X211536604Y-110568990D02*
X211631842Y-110521371D01*
X211631842Y-110521371D02*
X212012794Y-110521371D01*
X211108032Y-111045180D02*
X210441366Y-111045180D01*
X210441366Y-111045180D02*
X210869937Y-110045180D01*
X205738095Y-111954819D02*
X205738095Y-112764342D01*
X205738095Y-112764342D02*
X205785714Y-112859580D01*
X205785714Y-112859580D02*
X205833333Y-112907200D01*
X205833333Y-112907200D02*
X205928571Y-112954819D01*
X205928571Y-112954819D02*
X206119047Y-112954819D01*
X206119047Y-112954819D02*
X206214285Y-112907200D01*
X206214285Y-112907200D02*
X206261904Y-112859580D01*
X206261904Y-112859580D02*
X206309523Y-112764342D01*
X206309523Y-112764342D02*
X206309523Y-111954819D01*
X206690476Y-111954819D02*
X207309523Y-111954819D01*
X207309523Y-111954819D02*
X206976190Y-112335771D01*
X206976190Y-112335771D02*
X207119047Y-112335771D01*
X207119047Y-112335771D02*
X207214285Y-112383390D01*
X207214285Y-112383390D02*
X207261904Y-112431009D01*
X207261904Y-112431009D02*
X207309523Y-112526247D01*
X207309523Y-112526247D02*
X207309523Y-112764342D01*
X207309523Y-112764342D02*
X207261904Y-112859580D01*
X207261904Y-112859580D02*
X207214285Y-112907200D01*
X207214285Y-112907200D02*
X207119047Y-112954819D01*
X207119047Y-112954819D02*
X206833333Y-112954819D01*
X206833333Y-112954819D02*
X206738095Y-112907200D01*
X206738095Y-112907200D02*
X206690476Y-112859580D01*
X204950600Y-109353819D02*
X204950600Y-109591914D01*
X204712505Y-109496676D02*
X204950600Y-109591914D01*
X204950600Y-109591914D02*
X205188695Y-109496676D01*
X204807743Y-109782390D02*
X204950600Y-109591914D01*
X204950600Y-109591914D02*
X205093457Y-109782390D01*
X204950600Y-109353819D02*
X204950600Y-109591914D01*
X204712505Y-109496676D02*
X204950600Y-109591914D01*
X204950600Y-109591914D02*
X205188695Y-109496676D01*
X204807743Y-109782390D02*
X204950600Y-109591914D01*
X204950600Y-109591914D02*
X205093457Y-109782390D01*
X207783933Y-109004818D02*
X207450600Y-108528627D01*
X207212505Y-109004818D02*
X207212505Y-108004818D01*
X207212505Y-108004818D02*
X207593457Y-108004818D01*
X207593457Y-108004818D02*
X207688695Y-108052437D01*
X207688695Y-108052437D02*
X207736314Y-108100056D01*
X207736314Y-108100056D02*
X207783933Y-108195294D01*
X207783933Y-108195294D02*
X207783933Y-108338151D01*
X207783933Y-108338151D02*
X207736314Y-108433389D01*
X207736314Y-108433389D02*
X207688695Y-108481008D01*
X207688695Y-108481008D02*
X207593457Y-108528627D01*
X207593457Y-108528627D02*
X207212505Y-108528627D01*
X208688695Y-108004818D02*
X208212505Y-108004818D01*
X208212505Y-108004818D02*
X208164886Y-108481008D01*
X208164886Y-108481008D02*
X208212505Y-108433389D01*
X208212505Y-108433389D02*
X208307743Y-108385770D01*
X208307743Y-108385770D02*
X208545838Y-108385770D01*
X208545838Y-108385770D02*
X208641076Y-108433389D01*
X208641076Y-108433389D02*
X208688695Y-108481008D01*
X208688695Y-108481008D02*
X208736314Y-108576246D01*
X208736314Y-108576246D02*
X208736314Y-108814341D01*
X208736314Y-108814341D02*
X208688695Y-108909579D01*
X208688695Y-108909579D02*
X208641076Y-108957199D01*
X208641076Y-108957199D02*
X208545838Y-109004818D01*
X208545838Y-109004818D02*
X208307743Y-109004818D01*
X208307743Y-109004818D02*
X208212505Y-108957199D01*
X208212505Y-108957199D02*
X208164886Y-108909579D01*
X190954819Y-115211905D02*
X191764342Y-115211905D01*
X191764342Y-115211905D02*
X191859580Y-115164286D01*
X191859580Y-115164286D02*
X191907200Y-115116667D01*
X191907200Y-115116667D02*
X191954819Y-115021429D01*
X191954819Y-115021429D02*
X191954819Y-114830953D01*
X191954819Y-114830953D02*
X191907200Y-114735715D01*
X191907200Y-114735715D02*
X191859580Y-114688096D01*
X191859580Y-114688096D02*
X191764342Y-114640477D01*
X191764342Y-114640477D02*
X190954819Y-114640477D01*
X191954819Y-113640477D02*
X191954819Y-114211905D01*
X191954819Y-113926191D02*
X190954819Y-113926191D01*
X190954819Y-113926191D02*
X191097676Y-114021429D01*
X191097676Y-114021429D02*
X191192914Y-114116667D01*
X191192914Y-114116667D02*
X191240533Y-114211905D01*
X197738095Y-111954819D02*
X197738095Y-112764342D01*
X197738095Y-112764342D02*
X197785714Y-112859580D01*
X197785714Y-112859580D02*
X197833333Y-112907200D01*
X197833333Y-112907200D02*
X197928571Y-112954819D01*
X197928571Y-112954819D02*
X198119047Y-112954819D01*
X198119047Y-112954819D02*
X198214285Y-112907200D01*
X198214285Y-112907200D02*
X198261904Y-112859580D01*
X198261904Y-112859580D02*
X198309523Y-112764342D01*
X198309523Y-112764342D02*
X198309523Y-111954819D01*
X198738095Y-112050057D02*
X198785714Y-112002438D01*
X198785714Y-112002438D02*
X198880952Y-111954819D01*
X198880952Y-111954819D02*
X199119047Y-111954819D01*
X199119047Y-111954819D02*
X199214285Y-112002438D01*
X199214285Y-112002438D02*
X199261904Y-112050057D01*
X199261904Y-112050057D02*
X199309523Y-112145295D01*
X199309523Y-112145295D02*
X199309523Y-112240533D01*
X199309523Y-112240533D02*
X199261904Y-112383390D01*
X199261904Y-112383390D02*
X198690476Y-112954819D01*
X198690476Y-112954819D02*
X199309523Y-112954819D01*
X196950600Y-109353819D02*
X196950600Y-109591914D01*
X196712505Y-109496676D02*
X196950600Y-109591914D01*
X196950600Y-109591914D02*
X197188695Y-109496676D01*
X196807743Y-109782390D02*
X196950600Y-109591914D01*
X196950600Y-109591914D02*
X197093457Y-109782390D01*
X196950600Y-109353819D02*
X196950600Y-109591914D01*
X196712505Y-109496676D02*
X196950600Y-109591914D01*
X196950600Y-109591914D02*
X197188695Y-109496676D01*
X196807743Y-109782390D02*
X196950600Y-109591914D01*
X196950600Y-109591914D02*
X197093457Y-109782390D01*
X202454819Y-112666666D02*
X201978628Y-112999999D01*
X202454819Y-113238094D02*
X201454819Y-113238094D01*
X201454819Y-113238094D02*
X201454819Y-112857142D01*
X201454819Y-112857142D02*
X201502438Y-112761904D01*
X201502438Y-112761904D02*
X201550057Y-112714285D01*
X201550057Y-112714285D02*
X201645295Y-112666666D01*
X201645295Y-112666666D02*
X201788152Y-112666666D01*
X201788152Y-112666666D02*
X201883390Y-112714285D01*
X201883390Y-112714285D02*
X201931009Y-112761904D01*
X201931009Y-112761904D02*
X201978628Y-112857142D01*
X201978628Y-112857142D02*
X201978628Y-113238094D01*
X201788152Y-111809523D02*
X202454819Y-111809523D01*
X201407200Y-112047618D02*
X202121485Y-112285713D01*
X202121485Y-112285713D02*
X202121485Y-111666666D01*
X191666666Y-108140419D02*
X191714285Y-108092800D01*
X191714285Y-108092800D02*
X191857142Y-108045180D01*
X191857142Y-108045180D02*
X191952380Y-108045180D01*
X191952380Y-108045180D02*
X192095237Y-108092800D01*
X192095237Y-108092800D02*
X192190475Y-108188038D01*
X192190475Y-108188038D02*
X192238094Y-108283276D01*
X192238094Y-108283276D02*
X192285713Y-108473752D01*
X192285713Y-108473752D02*
X192285713Y-108616609D01*
X192285713Y-108616609D02*
X192238094Y-108807085D01*
X192238094Y-108807085D02*
X192190475Y-108902323D01*
X192190475Y-108902323D02*
X192095237Y-108997561D01*
X192095237Y-108997561D02*
X191952380Y-109045180D01*
X191952380Y-109045180D02*
X191857142Y-109045180D01*
X191857142Y-109045180D02*
X191714285Y-108997561D01*
X191714285Y-108997561D02*
X191666666Y-108949942D01*
X191285713Y-108949942D02*
X191238094Y-108997561D01*
X191238094Y-108997561D02*
X191142856Y-109045180D01*
X191142856Y-109045180D02*
X190904761Y-109045180D01*
X190904761Y-109045180D02*
X190809523Y-108997561D01*
X190809523Y-108997561D02*
X190761904Y-108949942D01*
X190761904Y-108949942D02*
X190714285Y-108854704D01*
X190714285Y-108854704D02*
X190714285Y-108759466D01*
X190714285Y-108759466D02*
X190761904Y-108616609D01*
X190761904Y-108616609D02*
X191333332Y-108045180D01*
X191333332Y-108045180D02*
X190714285Y-108045180D01*
X200666666Y-116045180D02*
X200999999Y-116521371D01*
X201238094Y-116045180D02*
X201238094Y-117045180D01*
X201238094Y-117045180D02*
X200857142Y-117045180D01*
X200857142Y-117045180D02*
X200761904Y-116997561D01*
X200761904Y-116997561D02*
X200714285Y-116949942D01*
X200714285Y-116949942D02*
X200666666Y-116854704D01*
X200666666Y-116854704D02*
X200666666Y-116711847D01*
X200666666Y-116711847D02*
X200714285Y-116616609D01*
X200714285Y-116616609D02*
X200761904Y-116568990D01*
X200761904Y-116568990D02*
X200857142Y-116521371D01*
X200857142Y-116521371D02*
X201238094Y-116521371D01*
X200333332Y-117045180D02*
X199714285Y-117045180D01*
X199714285Y-117045180D02*
X200047618Y-116664228D01*
X200047618Y-116664228D02*
X199904761Y-116664228D01*
X199904761Y-116664228D02*
X199809523Y-116616609D01*
X199809523Y-116616609D02*
X199761904Y-116568990D01*
X199761904Y-116568990D02*
X199714285Y-116473752D01*
X199714285Y-116473752D02*
X199714285Y-116235657D01*
X199714285Y-116235657D02*
X199761904Y-116140419D01*
X199761904Y-116140419D02*
X199809523Y-116092800D01*
X199809523Y-116092800D02*
X199904761Y-116045180D01*
X199904761Y-116045180D02*
X200190475Y-116045180D01*
X200190475Y-116045180D02*
X200285713Y-116092800D01*
X200285713Y-116092800D02*
X200333332Y-116140419D01*
X196061132Y-108859580D02*
X196013513Y-108907200D01*
X196013513Y-108907200D02*
X195870656Y-108954819D01*
X195870656Y-108954819D02*
X195775418Y-108954819D01*
X195775418Y-108954819D02*
X195632561Y-108907200D01*
X195632561Y-108907200D02*
X195537323Y-108811961D01*
X195537323Y-108811961D02*
X195489704Y-108716723D01*
X195489704Y-108716723D02*
X195442085Y-108526247D01*
X195442085Y-108526247D02*
X195442085Y-108383390D01*
X195442085Y-108383390D02*
X195489704Y-108192914D01*
X195489704Y-108192914D02*
X195537323Y-108097676D01*
X195537323Y-108097676D02*
X195632561Y-108002438D01*
X195632561Y-108002438D02*
X195775418Y-107954819D01*
X195775418Y-107954819D02*
X195870656Y-107954819D01*
X195870656Y-107954819D02*
X196013513Y-108002438D01*
X196013513Y-108002438D02*
X196061132Y-108050057D01*
X196394466Y-107954819D02*
X197013513Y-107954819D01*
X197013513Y-107954819D02*
X196680180Y-108335771D01*
X196680180Y-108335771D02*
X196823037Y-108335771D01*
X196823037Y-108335771D02*
X196918275Y-108383390D01*
X196918275Y-108383390D02*
X196965894Y-108431009D01*
X196965894Y-108431009D02*
X197013513Y-108526247D01*
X197013513Y-108526247D02*
X197013513Y-108764342D01*
X197013513Y-108764342D02*
X196965894Y-108859580D01*
X196965894Y-108859580D02*
X196918275Y-108907200D01*
X196918275Y-108907200D02*
X196823037Y-108954819D01*
X196823037Y-108954819D02*
X196537323Y-108954819D01*
X196537323Y-108954819D02*
X196442085Y-108907200D01*
X196442085Y-108907200D02*
X196394466Y-108859580D01*
X196891966Y-115045180D02*
X197225299Y-115521371D01*
X197463394Y-115045180D02*
X197463394Y-116045180D01*
X197463394Y-116045180D02*
X197082442Y-116045180D01*
X197082442Y-116045180D02*
X196987204Y-115997561D01*
X196987204Y-115997561D02*
X196939585Y-115949942D01*
X196939585Y-115949942D02*
X196891966Y-115854704D01*
X196891966Y-115854704D02*
X196891966Y-115711847D01*
X196891966Y-115711847D02*
X196939585Y-115616609D01*
X196939585Y-115616609D02*
X196987204Y-115568990D01*
X196987204Y-115568990D02*
X197082442Y-115521371D01*
X197082442Y-115521371D02*
X197463394Y-115521371D01*
X196511013Y-115949942D02*
X196463394Y-115997561D01*
X196463394Y-115997561D02*
X196368156Y-116045180D01*
X196368156Y-116045180D02*
X196130061Y-116045180D01*
X196130061Y-116045180D02*
X196034823Y-115997561D01*
X196034823Y-115997561D02*
X195987204Y-115949942D01*
X195987204Y-115949942D02*
X195939585Y-115854704D01*
X195939585Y-115854704D02*
X195939585Y-115759466D01*
X195939585Y-115759466D02*
X195987204Y-115616609D01*
X195987204Y-115616609D02*
X196558632Y-115045180D01*
X196558632Y-115045180D02*
X195939585Y-115045180D01*
%TO.C,J1*%
D11*
X167577000Y-106827800D02*
X167577000Y-119172200D01*
X167577000Y-119172200D02*
X182623575Y-119172200D01*
X182623575Y-106827800D02*
X167577000Y-106827800D01*
X186176424Y-119172200D02*
X186627000Y-119172200D01*
X186627000Y-106827800D02*
X186176424Y-106827800D01*
X186627000Y-108912652D02*
X186627000Y-106827800D01*
X186627000Y-119172200D02*
X186627000Y-117087347D01*
D12*
X186881000Y-119807200D02*
G75*
G02*
X186119000Y-119807200I-381000J0D01*
G01*
X186119000Y-119807200D02*
G75*
G02*
X186881000Y-119807200I381000J0D01*
G01*
%TO.C,R1*%
D11*
X196413850Y-118033400D02*
X196586150Y-118033400D01*
X196586150Y-116966600D02*
X196413850Y-116966600D01*
%TO.C,LED1*%
X202168842Y-109249300D02*
X202831158Y-109249300D01*
X202831158Y-107750700D02*
X202168842Y-107750700D01*
%TO.C,R6*%
X211188550Y-109033400D02*
X211360850Y-109033400D01*
X211360850Y-107966600D02*
X211188550Y-107966600D01*
%TO.C,R7*%
X211188550Y-111033400D02*
X211360850Y-111033400D01*
X211360850Y-109966600D02*
X211188550Y-109966600D01*
%TO.C,U3*%
X205471300Y-114176400D02*
X207528700Y-114176400D01*
X207528700Y-110823600D02*
X205471300Y-110823600D01*
X207528700Y-112863261D02*
X207528700Y-112136739D01*
%TO.C,R5*%
X207864450Y-109083399D02*
X208036750Y-109083399D01*
X208036750Y-108016599D02*
X207864450Y-108016599D01*
%TO.C,U1*%
X190473000Y-112773002D02*
X190473000Y-113837861D01*
X190473000Y-115062141D02*
X190473000Y-116127000D01*
X190473000Y-116127000D02*
X192527000Y-116127000D01*
X192527000Y-112773002D02*
X190473000Y-112773002D01*
X192527000Y-114787862D02*
X192527000Y-114112140D01*
X193127000Y-117270000D02*
G75*
G02*
X192873000Y-117270000I-127000J0D01*
G01*
X192873000Y-117270000D02*
G75*
G02*
X193127000Y-117270000I127000J0D01*
G01*
%TO.C,U2*%
X197471300Y-114176400D02*
X199528700Y-114176400D01*
X199528700Y-110823600D02*
X197471300Y-110823600D01*
X199528700Y-112863261D02*
X199528700Y-112136739D01*
%TO.C,R4*%
X201466600Y-112413850D02*
X201466600Y-112586150D01*
X202533400Y-112586150D02*
X202533400Y-112413850D01*
%TO.C,R3*%
X200413850Y-117033400D02*
X200586150Y-117033400D01*
X200586150Y-115966600D02*
X200413850Y-115966600D01*
%TO.C,R2*%
X196639150Y-116033400D02*
X196811450Y-116033400D01*
X196811450Y-114966600D02*
X196639150Y-114966600D01*
%TD*%
M02*
