%TF.GenerationSoftware,KiCad,Pcbnew,10.0.6*%
%TF.CreationDate,2026-09-18T11:08:57-04:00*%
%TF.ProjectId,eclectronicsmp1,65636c65-6374-4726-9f6e-6963736d7031,rev?*%
%TF.SameCoordinates,Original*%
%TF.FileFunction,Copper,L2,Bot*%
%TF.FilePolarity,Positive*%
%FSLAX46Y46*%
G04 Gerber Fmt 4.6, Leading zero omitted, Abs format (unit mm)*
G04 Created by KiCad (PCBNEW 10.0.6) date 2026-09-18 11:08:57*
%MOMM*%
%LPD*%
G01*
G04 APERTURE LIST*
%TA.AperFunction,WasherPad*%
%ADD10O,3.098800X1.549400*%
%TD*%
%TA.AperFunction,ComponentPad*%
%ADD11C,1.524000*%
%TD*%
%TA.AperFunction,ViaPad*%
%ADD12C,0.620000*%
%TD*%
G04 APERTURE END LIST*
D10*
%TO.P,J1,*%
%TO.N,*%
X184399999Y-107299999D03*
X184399999Y-118700001D03*
D11*
%TO.P,J1,1,1_1*%
%TO.N,Net-(U1-VIN)*%
X186500000Y-116499999D03*
%TO.P,J1,2,2_2*%
%TO.N,unconnected-(J1-Pad2)*%
X186500000Y-114000000D03*
%TO.P,J1,3,3_3*%
%TO.N,unconnected-(J1-Pad3)*%
X186500000Y-111999999D03*
%TO.P,J1,4,4_4*%
%TO.N,GND*%
X186500000Y-109500001D03*
%TD*%
D12*
%TO.N,GND*%
X195500000Y-112500000D03*
X194000000Y-116500000D03*
X203500000Y-112500000D03*
X211500000Y-114000000D03*
X194000000Y-116500000D03*
%TD*%
%TA.AperFunction,Conductor*%
%TO.N,GND*%
G36*
X182355702Y-107576858D02*
G01*
X182392430Y-107632253D01*
X182443523Y-107789503D01*
X182443525Y-107789506D01*
X182534650Y-107968349D01*
X182652631Y-108130736D01*
X182794562Y-108272667D01*
X182956949Y-108390648D01*
X183015816Y-108420642D01*
X183135794Y-108481774D01*
X183326685Y-108543798D01*
X183326686Y-108543798D01*
X183326689Y-108543799D01*
X183524939Y-108575199D01*
X183524940Y-108575199D01*
X185275058Y-108575199D01*
X185275059Y-108575199D01*
X185360128Y-108561725D01*
X185429420Y-108570679D01*
X185482872Y-108615675D01*
X185503512Y-108682427D01*
X185484787Y-108749741D01*
X185479843Y-108757083D01*
X185420643Y-108838565D01*
X185330457Y-109015563D01*
X185269075Y-109204477D01*
X185269075Y-109204480D01*
X185238000Y-109400679D01*
X185238000Y-109599322D01*
X185269075Y-109795521D01*
X185269075Y-109795524D01*
X185330457Y-109984438D01*
X185420641Y-110161433D01*
X185447730Y-110198716D01*
X186031244Y-109615202D01*
X186050289Y-109686278D01*
X186113824Y-109796324D01*
X186203677Y-109886177D01*
X186313723Y-109949712D01*
X186384797Y-109968756D01*
X185801283Y-110552269D01*
X185801283Y-110552270D01*
X185838567Y-110579359D01*
X185956077Y-110639234D01*
X186006873Y-110687209D01*
X186023668Y-110755030D01*
X186001130Y-110821165D01*
X185956077Y-110860204D01*
X185838305Y-110920212D01*
X185677533Y-111037020D01*
X185537021Y-111177532D01*
X185420213Y-111338304D01*
X185329994Y-111515366D01*
X185329993Y-111515369D01*
X185268587Y-111704361D01*
X185237500Y-111900638D01*
X185237500Y-112099359D01*
X185268587Y-112295636D01*
X185329993Y-112484628D01*
X185329994Y-112484631D01*
X185420213Y-112661693D01*
X185537019Y-112822463D01*
X185537021Y-112822465D01*
X185626874Y-112912318D01*
X185660359Y-112973641D01*
X185655375Y-113043333D01*
X185626875Y-113087680D01*
X185537018Y-113177537D01*
X185420213Y-113338305D01*
X185329994Y-113515367D01*
X185329993Y-113515370D01*
X185268587Y-113704362D01*
X185237500Y-113900639D01*
X185237500Y-114099360D01*
X185268587Y-114295637D01*
X185329993Y-114484629D01*
X185329994Y-114484632D01*
X185420213Y-114661694D01*
X185537019Y-114822464D01*
X185677536Y-114962981D01*
X185838306Y-115079787D01*
X185955527Y-115139514D01*
X186006323Y-115187489D01*
X186023118Y-115255310D01*
X186000581Y-115321444D01*
X185955528Y-115360483D01*
X185838307Y-115420210D01*
X185677533Y-115537020D01*
X185537021Y-115677532D01*
X185420213Y-115838304D01*
X185329994Y-116015366D01*
X185329993Y-116015369D01*
X185268587Y-116204361D01*
X185237500Y-116400638D01*
X185237500Y-116599359D01*
X185268587Y-116795636D01*
X185329993Y-116984628D01*
X185329994Y-116984631D01*
X185420213Y-117161693D01*
X185479144Y-117242805D01*
X185502624Y-117308611D01*
X185486799Y-117376665D01*
X185436693Y-117425360D01*
X185368215Y-117439235D01*
X185359429Y-117438164D01*
X185357998Y-117437937D01*
X185275059Y-117424801D01*
X183524939Y-117424801D01*
X183458855Y-117435267D01*
X183326687Y-117456201D01*
X183326684Y-117456201D01*
X183135794Y-117518225D01*
X182956948Y-117609352D01*
X182873469Y-117670004D01*
X182794562Y-117727333D01*
X182794560Y-117727335D01*
X182794559Y-117727335D01*
X182652633Y-117869261D01*
X182652633Y-117869262D01*
X182652631Y-117869264D01*
X182601962Y-117939003D01*
X182534650Y-118031650D01*
X182443523Y-118210496D01*
X182392430Y-118367746D01*
X182352993Y-118425422D01*
X182288634Y-118452620D01*
X182219788Y-118440705D01*
X182168312Y-118393461D01*
X182150499Y-118329428D01*
X182150499Y-115164032D01*
X183527199Y-115164032D01*
X183527199Y-115335967D01*
X183560738Y-115504578D01*
X183560740Y-115504586D01*
X183626534Y-115663427D01*
X183626534Y-115663428D01*
X183722047Y-115806373D01*
X183722053Y-115806381D01*
X183843617Y-115927945D01*
X183843625Y-115927951D01*
X183986570Y-116023464D01*
X184033094Y-116042735D01*
X184145413Y-116089259D01*
X184314031Y-116122799D01*
X184314035Y-116122800D01*
X184314036Y-116122800D01*
X184485963Y-116122800D01*
X184485964Y-116122799D01*
X184654585Y-116089259D01*
X184813425Y-116023465D01*
X184813426Y-116023464D01*
X184813427Y-116023464D01*
X184884421Y-115976026D01*
X184956377Y-115927948D01*
X185077947Y-115806378D01*
X185173464Y-115663426D01*
X185239258Y-115504586D01*
X185272799Y-115335963D01*
X185272799Y-115164037D01*
X185239258Y-114995414D01*
X185173464Y-114836574D01*
X185173463Y-114836572D01*
X185173463Y-114836571D01*
X185077950Y-114693626D01*
X185077944Y-114693618D01*
X184956380Y-114572054D01*
X184956372Y-114572048D01*
X184813427Y-114476535D01*
X184654585Y-114410741D01*
X184654577Y-114410739D01*
X184485966Y-114377200D01*
X184485962Y-114377200D01*
X184314036Y-114377200D01*
X184314031Y-114377200D01*
X184145420Y-114410739D01*
X184145412Y-114410741D01*
X183986571Y-114476535D01*
X183986570Y-114476535D01*
X183843625Y-114572048D01*
X183843617Y-114572054D01*
X183722053Y-114693618D01*
X183722047Y-114693626D01*
X183626534Y-114836571D01*
X183626534Y-114836572D01*
X183560740Y-114995413D01*
X183560738Y-114995421D01*
X183527199Y-115164032D01*
X182150499Y-115164032D01*
X182150499Y-110664031D01*
X183527199Y-110664031D01*
X183527199Y-110835966D01*
X183560738Y-111004577D01*
X183560740Y-111004585D01*
X183626534Y-111163426D01*
X183626534Y-111163427D01*
X183722047Y-111306372D01*
X183722053Y-111306380D01*
X183843617Y-111427944D01*
X183843625Y-111427950D01*
X183986570Y-111523463D01*
X184033094Y-111542734D01*
X184145413Y-111589258D01*
X184314031Y-111622798D01*
X184314035Y-111622799D01*
X184314036Y-111622799D01*
X184485963Y-111622799D01*
X184485964Y-111622798D01*
X184654585Y-111589258D01*
X184813425Y-111523464D01*
X184813426Y-111523463D01*
X184813427Y-111523463D01*
X184884421Y-111476025D01*
X184956377Y-111427947D01*
X185077947Y-111306377D01*
X185173464Y-111163425D01*
X185239258Y-111004585D01*
X185272799Y-110835962D01*
X185272799Y-110664036D01*
X185239258Y-110495413D01*
X185173464Y-110336573D01*
X185173463Y-110336571D01*
X185173463Y-110336570D01*
X185077950Y-110193625D01*
X185077944Y-110193617D01*
X184956380Y-110072053D01*
X184956372Y-110072047D01*
X184813427Y-109976534D01*
X184654585Y-109910740D01*
X184654577Y-109910738D01*
X184485966Y-109877199D01*
X184485962Y-109877199D01*
X184314036Y-109877199D01*
X184314031Y-109877199D01*
X184145420Y-109910738D01*
X184145412Y-109910740D01*
X183986571Y-109976534D01*
X183986570Y-109976534D01*
X183843625Y-110072047D01*
X183843617Y-110072053D01*
X183722053Y-110193617D01*
X183722047Y-110193625D01*
X183626534Y-110336570D01*
X183626534Y-110336571D01*
X183560740Y-110495412D01*
X183560738Y-110495420D01*
X183527199Y-110664031D01*
X182150499Y-110664031D01*
X182150499Y-107670571D01*
X182170184Y-107603532D01*
X182222988Y-107557777D01*
X182292146Y-107547833D01*
X182355702Y-107576858D01*
G37*
%TD.AperFunction*%
%TA.AperFunction,Conductor*%
G36*
X213442539Y-103520185D02*
G01*
X213488294Y-103572989D01*
X213499500Y-103624500D01*
X213499500Y-122375500D01*
X213479815Y-122442539D01*
X213427011Y-122488294D01*
X213375500Y-122499500D01*
X179624500Y-122499500D01*
X179557461Y-122479815D01*
X179511706Y-122427011D01*
X179500500Y-122375500D01*
X179500500Y-106888908D01*
X181149499Y-106888908D01*
X181149499Y-119111091D01*
X181183607Y-119238387D01*
X181216553Y-119295450D01*
X181249499Y-119352514D01*
X181342685Y-119445700D01*
X181456813Y-119511592D01*
X181584107Y-119545700D01*
X181584109Y-119545700D01*
X181715889Y-119545700D01*
X181715891Y-119545700D01*
X181843185Y-119511592D01*
X181957313Y-119445700D01*
X182050499Y-119352514D01*
X182116391Y-119238386D01*
X182150499Y-119111092D01*
X182150499Y-119070573D01*
X182170184Y-119003534D01*
X182222988Y-118957779D01*
X182292146Y-118947835D01*
X182355702Y-118976860D01*
X182392430Y-119032255D01*
X182443523Y-119189505D01*
X182468430Y-119238387D01*
X182534650Y-119368351D01*
X182652631Y-119530738D01*
X182794562Y-119672669D01*
X182956949Y-119790650D01*
X183135792Y-119881775D01*
X183135794Y-119881776D01*
X183326685Y-119943800D01*
X183326686Y-119943800D01*
X183326689Y-119943801D01*
X183524939Y-119975201D01*
X183524940Y-119975201D01*
X185275058Y-119975201D01*
X185275059Y-119975201D01*
X185473309Y-119943801D01*
X185473312Y-119943800D01*
X185473313Y-119943800D01*
X185664203Y-119881776D01*
X185664203Y-119881775D01*
X185664206Y-119881775D01*
X185843049Y-119790650D01*
X186005436Y-119672669D01*
X186147367Y-119530738D01*
X186265348Y-119368351D01*
X186356473Y-119189508D01*
X186381952Y-119111091D01*
X186418498Y-118998615D01*
X186418498Y-118998614D01*
X186418499Y-118998611D01*
X186449899Y-118800361D01*
X186449899Y-118599641D01*
X186418499Y-118401391D01*
X186418498Y-118401387D01*
X186418498Y-118401386D01*
X186356474Y-118210496D01*
X186265347Y-118031650D01*
X186202735Y-117945471D01*
X186179256Y-117879668D01*
X186195081Y-117811614D01*
X186245187Y-117762919D01*
X186313665Y-117749043D01*
X186322442Y-117750113D01*
X186400639Y-117762499D01*
X186400640Y-117762499D01*
X186599360Y-117762499D01*
X186599361Y-117762499D01*
X186795636Y-117731412D01*
X186984632Y-117670004D01*
X187161694Y-117579786D01*
X187322464Y-117462980D01*
X187462981Y-117322463D01*
X187579787Y-117161693D01*
X187670005Y-116984631D01*
X187731413Y-116795635D01*
X187762500Y-116599360D01*
X187762500Y-116400638D01*
X187731413Y-116204363D01*
X187694014Y-116089259D01*
X187670006Y-116015369D01*
X187670005Y-116015366D01*
X187579786Y-115838304D01*
X187556593Y-115806381D01*
X187462981Y-115677535D01*
X187322464Y-115537018D01*
X187161694Y-115420212D01*
X187044472Y-115360484D01*
X186993676Y-115312509D01*
X186976881Y-115244688D01*
X186999419Y-115178553D01*
X187044469Y-115139516D01*
X187161694Y-115079787D01*
X187322464Y-114962981D01*
X187462981Y-114822464D01*
X187579787Y-114661694D01*
X187670005Y-114484632D01*
X187731413Y-114295636D01*
X187762500Y-114099361D01*
X187762500Y-113900639D01*
X187731413Y-113704364D01*
X187670005Y-113515368D01*
X187670005Y-113515367D01*
X187579786Y-113338305D01*
X187462981Y-113177536D01*
X187373125Y-113087680D01*
X187339640Y-113026357D01*
X187344624Y-112956665D01*
X187373121Y-112912322D01*
X187462981Y-112822463D01*
X187579787Y-112661693D01*
X187670005Y-112484631D01*
X187731413Y-112295635D01*
X187762500Y-112099360D01*
X187762500Y-111900638D01*
X187731413Y-111704363D01*
X187694014Y-111589259D01*
X187670006Y-111515369D01*
X187670005Y-111515366D01*
X187579786Y-111338304D01*
X187556586Y-111306372D01*
X187462981Y-111177535D01*
X187322464Y-111037018D01*
X187161694Y-110920212D01*
X187043921Y-110860203D01*
X186993126Y-110812229D01*
X186976331Y-110744408D01*
X186998869Y-110678273D01*
X187043923Y-110639234D01*
X187161422Y-110579365D01*
X187198716Y-110552269D01*
X186615203Y-109968756D01*
X186686277Y-109949712D01*
X186796323Y-109886177D01*
X186886176Y-109796324D01*
X186949711Y-109686278D01*
X186968755Y-109615203D01*
X187552268Y-110198716D01*
X187579362Y-110161426D01*
X187669542Y-109984438D01*
X187730924Y-109795524D01*
X187730924Y-109795521D01*
X187762000Y-109599322D01*
X187762000Y-109400679D01*
X187730924Y-109204480D01*
X187730924Y-109204477D01*
X187669542Y-109015563D01*
X187579358Y-108838568D01*
X187552268Y-108801284D01*
X186968755Y-109384797D01*
X186949711Y-109313724D01*
X186886176Y-109203678D01*
X186796323Y-109113825D01*
X186686277Y-109050290D01*
X186615201Y-109031245D01*
X187198715Y-108447731D01*
X187161432Y-108420642D01*
X186984437Y-108330458D01*
X186795522Y-108269076D01*
X186599321Y-108238001D01*
X186400684Y-108238001D01*
X186322036Y-108250457D01*
X186252743Y-108241501D01*
X186199291Y-108196504D01*
X186178652Y-108129753D01*
X186197377Y-108062439D01*
X186202309Y-108055114D01*
X186265348Y-107968349D01*
X186356473Y-107789506D01*
X186395117Y-107670571D01*
X186418498Y-107598613D01*
X186418498Y-107598612D01*
X186418499Y-107598609D01*
X186449899Y-107400359D01*
X186449899Y-107199639D01*
X186418499Y-107001389D01*
X186418498Y-107001385D01*
X186418498Y-107001384D01*
X186356474Y-106810494D01*
X186273417Y-106647486D01*
X186265348Y-106631649D01*
X186147367Y-106469262D01*
X186005436Y-106327331D01*
X185843049Y-106209350D01*
X185664203Y-106118223D01*
X185473312Y-106056199D01*
X185324621Y-106032649D01*
X185275059Y-106024799D01*
X183524939Y-106024799D01*
X183458855Y-106035265D01*
X183326687Y-106056199D01*
X183326684Y-106056199D01*
X183135794Y-106118223D01*
X182956948Y-106209350D01*
X182864301Y-106276662D01*
X182794562Y-106327331D01*
X182794560Y-106327333D01*
X182794559Y-106327333D01*
X182652633Y-106469259D01*
X182652633Y-106469260D01*
X182652631Y-106469262D01*
X182638721Y-106488408D01*
X182534650Y-106631648D01*
X182443523Y-106810494D01*
X182392430Y-106967744D01*
X182352993Y-107025420D01*
X182288634Y-107052618D01*
X182219788Y-107040703D01*
X182168312Y-106993459D01*
X182150499Y-106929426D01*
X182150499Y-106888910D01*
X182150499Y-106888908D01*
X182116391Y-106761614D01*
X182050499Y-106647486D01*
X181957313Y-106554300D01*
X181900249Y-106521354D01*
X181843186Y-106488408D01*
X181771719Y-106469259D01*
X181715891Y-106454300D01*
X181584107Y-106454300D01*
X181456811Y-106488408D01*
X181342685Y-106554300D01*
X181342682Y-106554302D01*
X181249501Y-106647483D01*
X181249499Y-106647486D01*
X181183607Y-106761612D01*
X181149499Y-106888908D01*
X179500500Y-106888908D01*
X179500500Y-103624500D01*
X179520185Y-103557461D01*
X179572989Y-103511706D01*
X179624500Y-103500500D01*
X213375500Y-103500500D01*
X213442539Y-103520185D01*
G37*
%TD.AperFunction*%
%TD*%
M02*
